<svg xmlns="http://www.w3.org/2000/svg" width="375" viewBox="0 0 375 198.75" height="198.75" version="1.0"><defs><clipPath id="a"><path d="M 0.234375 0 L 374.761719 0 L 374.761719 198.5 L 0.234375 198.5 Z M 0.234375 0"/></clipPath><clipPath id="b"><path d="M 266 98 L 374.761719 98 L 374.761719 198.5 L 266 198.5 Z M 266 98"/></clipPath></defs><g clip-path="url(#a)" fill="#FFF"><path d="M 0.234375 0 L 374.765625 0 L 374.765625 205.242188 L 0.234375 205.242188 Z M 0.234375 0"/><path d="M 0.234375 0 L 374.765625 0 L 374.765625 198.5 L 0.234375 198.5 Z M 0.234375 0"/><path d="M 0.234375 0 L 374.765625 0 L 374.765625 198.5 L 0.234375 198.5 Z M 0.234375 0"/></g><g clip-path="url(#b)"><g fill="#58CF24"><g><g><path d="M 72.84375 -67 L 17.640625 -46.0625 C 19.671875 -40.71875 22.90625 -37.421875 27.34375 -36.171875 C 31.78125 -34.921875 36.03125 -35.066406 40.09375 -36.609375 C 44.34375 -38.210938 47.488281 -40.050781 49.53125 -42.125 C 51.570312 -44.195312 53.535156 -47.519531 55.421875 -52.09375 L 78.015625 -49.796875 C 75.140625 -33.546875 64.503906 -21.929688 46.109375 -14.953125 C 34.617188 -10.597656 23.28125 -10.789062 12.09375 -15.53125 C 0.90625 -20.28125 -6.785156 -28.191406 -10.984375 -39.265625 C -15.179688 -50.347656 -14.679688 -61.398438 -9.484375 -72.421875 C -4.285156 -83.453125 4.054688 -91.144531 15.546875 -95.5 C 27.609375 -100.070312 38.742188 -100.304688 48.953125 -96.203125 C 59.160156 -92.097656 66.722656 -83.570312 71.640625 -70.625 C 72.316406 -68.84375 72.71875 -67.632812 72.84375 -67 Z M 12.890625 -60.890625 L 41.8125 -71.859375 C 39.71875 -75.609375 37.007812 -78.0625 33.6875 -79.21875 C 30.363281 -80.382812 26.71875 -80.210938 22.75 -78.703125 C 18.394531 -77.054688 15.363281 -74.609375 13.65625 -71.359375 C 11.945312 -68.117188 11.691406 -64.628906 12.890625 -60.890625 Z M 12.890625 -60.890625" transform="translate(292.32 209.21)"/></g></g></g></g><g fill="#0036AD"><g><g><path d="M 14.234375 -195.703125 L 84.21875 -195.703125 C 103.03125 -195.703125 118.367188 -190.679688 130.234375 -180.640625 C 142.097656 -170.597656 148.03125 -156.25 148.03125 -137.59375 C 148.03125 -123.195312 144.429688 -111.132812 137.234375 -101.40625 C 130.035156 -91.6875 120.269531 -84.847656 107.9375 -80.890625 L 175.3125 0 L 118.609375 0 L 58.828125 -77.328125 L 58.828125 0 L 14.234375 0 Z M 58.828125 -108.890625 L 64.046875 -108.890625 C 68.160156 -108.890625 71.640625 -108.96875 74.484375 -109.125 C 77.328125 -109.28125 80.566406 -109.832031 84.203125 -110.78125 C 87.847656 -111.726562 90.773438 -113.070312 92.984375 -114.8125 C 95.203125 -116.550781 97.101562 -119.082031 98.6875 -122.40625 C 100.269531 -125.726562 101.0625 -129.757812 101.0625 -134.5 C 101.0625 -139.25 100.269531 -143.28125 98.6875 -146.59375 C 97.101562 -149.914062 95.203125 -152.445312 92.984375 -154.1875 C 90.773438 -155.925781 87.847656 -157.269531 84.203125 -158.21875 C 80.566406 -159.164062 77.328125 -159.71875 74.484375 -159.875 C 71.640625 -160.039062 68.160156 -160.125 64.046875 -160.125 L 58.828125 -160.125 Z M 58.828125 -108.890625" transform="translate(138.942 196.976)"/></g></g></g><g fill="#0036AD"><g><g><path d="M 58.828125 -78.515625 L 58.828125 0 L 14.234375 0 L 14.234375 -195.703125 L 58.828125 -195.703125 L 58.828125 -117.65625 L 121.9375 -117.65625 L 121.9375 -195.703125 L 166.53125 -195.703125 L 166.53125 0 L 121.9375 0 L 121.9375 -78.515625 Z M 58.828125 -78.515625" transform="translate(-12.078 196.976)"/></g></g></g><path fill="#FF009D" d="M 131.773438 112.734375 L 170.574219 112.734375 L 170.574219 196.789062 L 131.773438 196.789062 L 131.773438 112.734375"/><path fill="#FF009D" d="M 152.378906 43.371094 C 140.179688 43.371094 130.285156 53.261719 130.285156 65.464844 C 130.285156 77.664062 140.179688 87.558594 152.378906 87.558594 C 164.582031 87.558594 174.472656 77.664062 174.472656 65.464844 C 174.472656 53.261719 164.582031 43.371094 152.378906 43.371094"/><g fill="#C536FF"><g><g><path d="M 89.6875 -23.492188 L 89.6875 -41.667969 L 77.128906 -41.667969 L 77.128906 -101.953125 L 52.15625 -101.953125 L 5.46875 -36.050781 L 5.46875 -23.492188 L 53.929688 -23.492188 L 53.929688 0 L 77.128906 0 L 77.128906 -23.492188 Z M 53.929688 -41.667969 L 29.996094 -41.667969 L 47.726562 -66.636719 C 49.644531 -69.445312 51.714844 -72.84375 53.929688 -76.683594 Z M 53.929688 -41.667969" transform="translate(273.658 106.204)"/></g></g></g></svg>