<svg xmlns="http://www.w3.org/2000/svg" width="375" viewBox="0 0 375 375" height="375" version="1.0"><g fill="#58CF24"><g><g><path d="M 50.6875 -46.625 L 12.28125 -32.0625 C 13.695312 -28.34375 15.945312 -26.046875 19.03125 -25.171875 C 22.125 -24.296875 25.082031 -24.394531 27.90625 -25.46875 C 30.863281 -26.59375 33.050781 -27.875 34.46875 -29.3125 C 35.894531 -30.757812 37.257812 -33.066406 38.5625 -36.234375 L 54.3125 -34.640625 C 52.289062 -23.335938 44.882812 -15.257812 32.09375 -10.40625 C 24.101562 -7.375 16.210938 -7.507812 8.421875 -10.8125 C 0.628906 -14.125 -4.722656 -19.632812 -7.640625 -27.34375 C -10.566406 -35.050781 -10.21875 -42.738281 -6.59375 -50.40625 C -2.976562 -58.082031 2.820312 -63.4375 10.8125 -66.46875 C 19.207031 -69.644531 26.957031 -69.804688 34.0625 -66.953125 C 41.164062 -64.097656 46.425781 -58.160156 49.84375 -49.140625 C 50.3125 -47.910156 50.59375 -47.070312 50.6875 -46.625 Z M 8.96875 -42.359375 L 29.109375 -50 C 27.648438 -52.601562 25.757812 -54.3125 23.4375 -55.125 C 21.125 -55.9375 18.59375 -55.820312 15.84375 -54.78125 C 12.8125 -53.632812 10.703125 -51.929688 9.515625 -49.671875 C 8.328125 -47.410156 8.144531 -44.972656 8.96875 -42.359375 Z M 8.96875 -42.359375" transform="translate(265.57 265.94)"/></g></g></g><g fill="#0036AD"><g><g><path d="M 9.90625 -136.1875 L 58.609375 -136.1875 C 71.703125 -136.1875 82.375 -132.691406 90.625 -125.703125 C 98.882812 -118.710938 103.015625 -108.726562 103.015625 -95.75 C 103.015625 -85.726562 100.507812 -77.332031 95.5 -70.5625 C 90.488281 -63.800781 83.691406 -59.046875 75.109375 -56.296875 L 122 0 L 82.546875 0 L 40.9375 -53.8125 L 40.9375 0 L 9.90625 0 Z M 40.9375 -75.765625 L 44.578125 -75.765625 C 47.429688 -75.765625 49.847656 -75.816406 51.828125 -75.921875 C 53.816406 -76.035156 56.078125 -76.421875 58.609375 -77.078125 C 61.140625 -77.742188 63.171875 -78.679688 64.703125 -79.890625 C 66.242188 -81.109375 67.566406 -82.867188 68.671875 -85.171875 C 69.773438 -87.484375 70.328125 -90.289062 70.328125 -93.59375 C 70.328125 -96.894531 69.773438 -99.703125 68.671875 -102.015625 C 67.566406 -104.328125 66.242188 -106.085938 64.703125 -107.296875 C 63.171875 -108.503906 61.140625 -109.4375 58.609375 -110.09375 C 56.078125 -110.757812 53.816406 -111.144531 51.828125 -111.25 C 49.847656 -111.363281 47.429688 -111.421875 44.578125 -111.421875 L 40.9375 -111.421875 Z M 40.9375 -75.765625" transform="translate(158.832 257.426)"/></g></g></g><g fill="#0036AD"><g><g><path d="M 40.9375 -54.640625 L 40.9375 0 L 9.90625 0 L 9.90625 -136.1875 L 40.9375 -136.1875 L 40.9375 -81.875 L 84.84375 -81.875 L 84.84375 -136.1875 L 115.890625 -136.1875 L 115.890625 0 L 84.84375 0 L 84.84375 -54.640625 Z M 40.9375 -54.640625" transform="translate(53.735 257.426)"/></g></g></g><path fill="#FF009D" d="M 153.84375 198.800781 L 180.84375 198.800781 L 180.84375 257.296875 L 153.84375 257.296875 L 153.84375 198.800781"/><path fill="#FF009D" d="M 168.183594 150.53125 C 159.691406 150.53125 152.808594 157.414062 152.808594 165.90625 C 152.808594 174.394531 159.691406 181.28125 168.183594 181.28125 C 176.675781 181.28125 183.558594 174.394531 183.558594 165.90625 C 183.558594 157.414062 176.675781 150.53125 168.183594 150.53125"/><g fill="#C536FF"><g><g><path d="M 62.414062 -16.347656 L 62.414062 -28.996094 L 53.675781 -28.996094 L 53.675781 -70.949219 L 36.296875 -70.949219 L 3.804688 -25.089844 L 3.804688 -16.347656 L 37.53125 -16.347656 L 37.53125 0 L 53.675781 0 L 53.675781 -16.347656 Z M 37.53125 -28.996094 L 20.875 -28.996094 L 33.210938 -46.375 C 34.550781 -48.328125 35.988281 -50.691406 37.53125 -53.367188 Z M 37.53125 -28.996094" transform="translate(252.582 194.256)"/></g></g></g></svg>